<svg width="19" height="25" viewBox="0 0 19 25" fill="none" xmlns="http://www.w3.org/2000/svg">
<path d="M8.47717 9.14688C8.62582 9.00018 8.70933 8.80121 8.70933 8.59375C8.70933 8.38629 8.62582 8.18732 8.47717 8.04062C8.32851 7.89393 8.12689 7.81151 7.91667 7.81151C7.70644 7.81151 7.50482 7.89393 7.35617 8.04062L5.1205 10.2469L4.49192 9.68125C4.33574 9.54951 4.13377 9.48286 3.92871 9.49536C3.72364 9.50787 3.53153 9.59857 3.39298 9.74828C3.25443 9.89799 3.18028 10.095 3.18621 10.2977C3.19214 10.5003 3.27768 10.6928 3.42475 10.8344L4.61225 11.9047C4.76271 12.0399 4.96014 12.1127 5.16357 12.108C5.367 12.1034 5.5608 12.0216 5.70475 11.8797L8.47558 9.14531L8.47717 9.14688ZM8.47717 15.8531C8.55089 15.9257 8.60938 16.0119 8.64929 16.1068C8.68921 16.2017 8.70975 16.3035 8.70975 16.4062C8.70975 16.509 8.68921 16.6108 8.64929 16.7057C8.60938 16.8006 8.55089 16.8868 8.47717 16.9594L5.70633 19.6938C5.5621 19.8359 5.36786 19.9177 5.16406 19.9221C4.96025 19.9264 4.7626 19.853 4.61225 19.7172L3.42475 18.6469C3.27768 18.5053 3.19214 18.3128 3.18621 18.1102C3.18028 17.9075 3.25443 17.7105 3.39298 17.5608C3.53153 17.4111 3.72364 17.3204 3.92871 17.3079C4.13377 17.2954 4.33574 17.362 4.49192 17.4937L5.1205 18.0609L7.35617 15.8531C7.42971 15.7804 7.51707 15.7226 7.61325 15.6833C7.70943 15.6439 7.81254 15.6236 7.91667 15.6236C8.0208 15.6236 8.12391 15.6439 8.22009 15.6833C8.31627 15.7226 8.40363 15.7804 8.47717 15.8531ZM11.0833 16.7969C10.8734 16.7969 10.672 16.8792 10.5235 17.0257C10.3751 17.1722 10.2917 17.3709 10.2917 17.5781C10.2917 17.7853 10.3751 17.984 10.5235 18.1306C10.672 18.2771 10.8734 18.3594 11.0833 18.3594H15.0417C15.2516 18.3594 15.453 18.2771 15.6015 18.1306C15.7499 17.984 15.8333 17.7853 15.8333 17.5781C15.8333 17.3709 15.7499 17.1722 15.6015 17.0257C15.453 16.8792 15.2516 16.7969 15.0417 16.7969H11.0833ZM10.2917 9.76562C10.2917 9.55842 10.3751 9.35971 10.5235 9.2132C10.672 9.06668 10.8734 8.98438 11.0833 8.98438H15.0417C15.2516 8.98438 15.453 9.06668 15.6015 9.2132C15.7499 9.35971 15.8333 9.55842 15.8333 9.76562C15.8333 9.97283 15.7499 10.1715 15.6015 10.3181C15.453 10.4646 15.2516 10.5469 15.0417 10.5469H11.0833C10.8734 10.5469 10.672 10.4646 10.5235 10.3181C10.3751 10.1715 10.2917 9.97283 10.2917 9.76562ZM7.125 3.22245e-07C6.63365 -0.000253875 6.15432 0.149887 5.75306 0.429732C5.3518 0.709576 5.04837 1.10535 4.88458 1.5625H2.375C1.74511 1.5625 1.14102 1.80943 0.695621 2.24897C0.250222 2.68851 0 3.28465 0 3.90625V22.6562C0 23.2779 0.250222 23.874 0.695621 24.3135C1.14102 24.7531 1.74511 25 2.375 25H16.625C17.2549 25 17.859 24.7531 18.3044 24.3135C18.7498 23.874 19 23.2779 19 22.6562V3.90625C19 3.28465 18.7498 2.68851 18.3044 2.24897C17.859 1.80943 17.2549 1.5625 16.625 1.5625H14.1154C13.9516 1.10535 13.6482 0.709576 13.2469 0.429732C12.8457 0.149887 12.3664 -0.000253875 11.875 3.22245e-07H7.125ZM6.33333 2.34375C6.33333 2.13655 6.41674 1.93784 6.56521 1.79132C6.71367 1.64481 6.91504 1.5625 7.125 1.5625H11.875C12.085 1.5625 12.2863 1.64481 12.4348 1.79132C12.5833 1.93784 12.6667 2.13655 12.6667 2.34375C12.6667 2.55095 12.5833 2.74966 12.4348 2.89618C12.2863 3.04269 12.085 3.125 11.875 3.125H7.125C6.91504 3.125 6.71367 3.04269 6.56521 2.89618C6.41674 2.74966 6.33333 2.55095 6.33333 2.34375ZM2.375 3.125H4.88458C5.04837 3.58215 5.3518 3.97792 5.75306 4.25777C6.15432 4.53761 6.63365 4.68775 7.125 4.6875H11.875C12.3664 4.68775 12.8457 4.53761 13.2469 4.25777C13.6482 3.97792 13.9516 3.58215 14.1154 3.125H16.625C16.835 3.125 17.0363 3.20731 17.1848 3.35382C17.3333 3.50034 17.4167 3.69905 17.4167 3.90625V22.6562C17.4167 22.8635 17.3333 23.0622 17.1848 23.2087C17.0363 23.3552 16.835 23.4375 16.625 23.4375H2.375C2.16504 23.4375 1.96367 23.3552 1.81521 23.2087C1.66674 23.0622 1.58333 22.8635 1.58333 22.6562V3.90625C1.58333 3.69905 1.66674 3.50034 1.81521 3.35382C1.96367 3.20731 2.16504 3.125 2.375 3.125Z" fill="#606060"/>
</svg>
