<svg width="29" height="26" viewBox="0 0 29 26" fill="none" xmlns="http://www.w3.org/2000/svg">
<path d="M11.9784 14.9821C9.94258 15.1811 8.23399 13.4802 8.43393 11.4537C8.57934 9.95186 9.79717 8.73954 11.324 8.57669C13.3598 8.37765 15.0684 10.0785 14.8684 12.1051C14.723 13.6069 13.5052 14.8373 11.9784 14.9821Z" fill="#51AB90"/>
<path fill-rule="evenodd" clip-rule="evenodd" d="M20.349 8.57669C20.149 7.94339 20.1033 7.81673 19.7943 7.25581C19.5943 6.89392 19.6489 6.42347 19.9397 6.13396L20.7213 5.35591C21.0848 4.99402 21.0848 4.39691 20.7213 4.03502L19.358 2.67795C18.9945 2.31607 18.3947 2.31607 18.0312 2.67795L17.2314 3.4741C16.9406 3.76361 16.4861 3.83599 16.1226 3.63695C15.541 3.32935 14.923 3.07603 14.2868 2.87699C13.8869 2.76842 13.6142 2.38844 13.6142 1.97228V0.940902C13.6142 0.416168 13.1962 0 12.6691 0H10.6878C10.1607 0 9.74264 0.416168 9.74264 0.940902V1.97228C9.74264 2.38844 9.46999 2.75033 9.07011 2.87699C8.39757 3.07603 7.76139 3.32935 7.16157 3.65505C6.79804 3.85409 6.34362 3.7998 6.03462 3.4922L5.36209 2.82271C4.99856 2.46082 4.39873 2.46082 4.0352 2.82271L2.67196 4.17978C2.30842 4.54167 2.30842 5.13878 2.67196 5.50066L3.34449 6.17015C3.63531 6.45966 3.70802 6.91202 3.50808 7.27391C3.16272 7.88911 2.89007 8.5405 2.70831 9.22809C2.59925 9.62616 2.21754 9.91567 1.79948 9.91567H0.945181C0.418061 9.91567 0 10.3318 0 10.8566V12.7927C0 13.3174 0.418061 13.7336 0.945181 13.7336H1.85401C2.27207 13.7336 2.6356 14.005 2.74466 14.4031C2.9446 15.0906 3.23543 15.742 3.58078 16.3572C3.7989 16.7191 3.7262 17.1896 3.43537 17.4791L2.83554 18.0762C2.47201 18.4381 2.47201 19.0352 2.83554 19.3971L4.19879 20.7541C4.56232 21.116 5.16215 21.116 5.52568 20.7541L6.19821 20.0847C6.48903 19.7951 6.94345 19.7228 7.30698 19.9218C7.92498 20.2475 8.57934 20.5008 9.27005 20.6818C9.68811 20.7903 9.96076 21.1703 9.96076 21.5865L10.9464 20.6818L17.2314 14.4031C17.2314 11.4645 19.3098 9.29443 20.349 8.57669ZM8.43393 11.4537C8.23399 13.4802 9.94258 15.1811 11.9784 14.9821C13.5052 14.8373 14.723 13.6069 14.8684 12.1051C15.0684 10.0785 13.3598 8.37765 11.324 8.57669C9.79717 8.73954 8.57934 9.95186 8.43393 11.4537Z" fill="white"/>
<path d="M22.7279 7.43336L22.7297 7.43335C23.5911 7.43024 24.4392 7.64571 25.1946 8.05962L25.1946 8.05963L25.1973 8.06104C25.3174 8.12593 25.3515 8.30423 25.241 8.41445L25.2393 8.41615L22.6689 11.0058C22.1591 11.5194 22.1606 12.3486 22.6724 12.8603C23.184 13.372 24.0131 13.3735 24.5268 12.8638L27.1171 10.2933L27.1187 10.2918C27.2283 10.182 27.4062 10.2152 27.4716 10.3362L27.4732 10.3391C27.8878 11.094 28.1035 11.9421 28.0999 12.8034V12.8054C28.0999 15.781 25.7034 18.1775 22.7279 18.1775C22.6944 18.1775 22.6534 18.176 22.6048 18.1731C22.1804 18.1471 21.7447 18.2878 21.4241 18.6084L15.4702 24.5631L15.4691 24.5642C15.1744 24.8608 14.8241 25.0961 14.4381 25.2567C14.0522 25.4173 13.6383 25.5 13.2202 25.5C12.8022 25.5 12.3883 25.4173 12.0024 25.2567C11.6164 25.0961 11.266 24.8608 10.9714 24.5642L10.9691 24.5619C10.6726 24.2673 10.4372 23.9169 10.2766 23.531C10.116 23.145 10.0333 22.7311 10.0333 22.3131C10.0333 21.895 10.116 21.4811 10.2766 21.0952L9.81781 20.9043L10.2766 21.0952C10.4372 20.7092 10.6726 20.3589 10.9691 20.0642L10.9702 20.0631L16.925 14.109C17.2456 13.7885 17.3862 13.353 17.3602 12.9287C17.3573 12.8801 17.3558 12.8391 17.3558 12.8054C17.3558 9.82991 19.7523 7.43336 22.7279 7.43336ZM26.7649 9.93839L24.1746 12.5089C23.8564 12.8247 23.3428 12.8237 23.0259 12.5067C22.7089 12.1898 22.708 11.6762 23.0238 11.358L25.5942 8.76838C25.9347 8.42853 25.8582 7.84979 25.4349 7.62112C24.6053 7.16657 23.6739 6.92993 22.7279 6.93336L26.7649 9.93839Z" fill="white" stroke="#51AB90"/>
</svg>
